<svg width="759" height="704" viewBox="0 0 759 704" fill="none" xmlns="http://www.w3.org/2000/svg">
<rect width="759" height="704" fill="white"/>
<path d="M492.672 82.0061C491.295 82.0211 489.882 82.079 488.478 82.1733C432.581 90.4466 401.847 141.129 397.394 185.824C390.886 226.378 411.729 278.504 463.66 287.591C471.192 288.821 479.019 288.259 486.381 286.546C548.915 268.567 576.9 205.06 567.861 152.456C565.233 118.482 535.365 81.5374 492.671 82.0044L492.672 82.0061ZM255.688 84.1802C220.931 84.9118 193.856 115.138 188.35 143.552C176.739 199.845 206.603 269.791 274.997 287.597C281.403 288.791 288.03 288.914 294.501 288.057C340.728 281.451 360.311 237.008 358.378 201.131C356.987 153.805 328.317 99.0807 270.999 85.7734C265.76 84.5821 260.654 84.0801 255.688 84.1846L255.688 84.1802ZM644.118 244.066C583.992 247.151 542.77 298.593 536.893 346.629C528.936 381.274 550.476 427.61 596.576 430.377C660.858 429.698 704.709 370.8 706.532 320.121C710.598 286.604 687.572 245.918 644.118 244.066ZM117.847 255.481C92.2673 255.292 67.1084 268.431 58.7496 290.728C36.4477 350.373 81.2325 425.915 154.905 438.452C185.653 442.964 212.669 422.716 220.293 398.355C236.45 346.248 203.265 285.745 147.104 262.097C137.954 257.694 127.857 255.565 117.847 255.491V255.481ZM387.396 362.434C337.248 362.526 286.312 384.347 253.84 416.83C218.769 454.691 190.038 498.748 178.797 546.529C165.142 580.923 196.091 620.505 238.967 620.745C290.55 621.973 334.883 591.6 386.176 589.344C429.693 583.656 468.66 603.065 507.785 615.769C541.097 627.986 587.128 623.304 604.136 592.563C617.514 561.23 597.823 527.819 581.511 499.993C548.242 454.827 512.599 407.358 458.049 379.159C436.184 367.538 411.887 362.389 387.396 362.434Z" fill="#5B21B6"/>
</svg>
